<?xml version="1.0" encoding="UTF-8"?>
<svg id="_レイヤー_1" xmlns="http://www.w3.org/2000/svg" version="1.1" viewBox="0 0 226.85 207.04">
  <!-- Generator: Adobe Illustrator 29.8.1, SVG Export Plug-In . SVG Version: 2.1.1 Build 2)  -->
  <defs>
    <style>
      .st0 {
        fill: #b8b8b8;
      }
    </style>
  </defs>
  <path class="st0" d="M113.43,74.14c0,16.4-3.71,31.89-11.1,46.46-7.4,14.57-15.89,27.1-25.45,37.58-9.79,10.93-20.16,20.61-31.09,29.04-10.93,8.42-20.96,15.03-30.06,19.82L0,184.15c10.93-6.83,20.72-13.67,29.38-20.5,8.65-6.83,15.72-13.67,21.18-20.5,6.83-7.98,12.64-16.63,17.42-25.96,4.78-9.34,7.86-19.93,9.22-31.77h-17.42c-15.26,0-27.16-3.98-35.7-11.96-8.54-7.97-12.81-18.67-12.81-32.11,0-9.57,3.87-18.84,11.62-27.84C30.63,4.5,41.22,0,54.66,0c19.59,0,34.28,6.55,44.07,19.64,9.79,13.1,14.69,31.26,14.69,54.49h.01Z"/>
  <path class="st0" d="M226.85,74.14c0,16.4-3.71,31.89-11.1,46.46-7.4,14.57-15.89,27.1-25.45,37.58-9.79,10.93-20.16,20.61-31.09,29.04-10.93,8.42-20.96,15.03-30.06,19.82l-15.72-22.89c10.93-6.83,20.72-13.67,29.38-20.5,8.65-6.83,15.72-13.67,21.18-20.5,6.83-7.98,12.64-16.63,17.42-25.96,4.78-9.34,7.86-19.93,9.22-31.77h-17.42c-15.26,0-27.16-3.98-35.7-11.96-8.54-7.97-12.81-18.67-12.81-32.11,0-9.57,3.87-18.84,11.62-27.84C144.06,4.51,154.65.02,168.09.02c19.59,0,34.28,6.55,44.07,19.64,9.79,13.1,14.69,31.26,14.69,54.49h0Z"/>
</svg>